<?xml version="1.0" encoding="UTF-8"?>
<!DOCTYPE svg PUBLIC "-//W3C//DTD SVG 1.1//EN" "http://www.w3.org/Graphics/SVG/1.1/DTD/svg11.dtd">
<svg xmlns="http://www.w3.org/2000/svg" version="1.1" width="250px" height="250px" style="shape-rendering:geometricPrecision; text-rendering:geometricPrecision; image-rendering:optimizeQuality; fill-rule:evenodd; clip-rule:evenodd" xmlns:xlink="http://www.w3.org/1999/xlink">
<g><path style="opacity:0.996" fill="#f98473" d="M 113.5,7.5 C 169.54,5.75154 209.373,30.0849 233,80.5C 250.285,130.85 240.119,174.684 202.5,212C 164.017,243.088 121.684,249.421 75.5,231C 27.8331,206.521 5.33308,167.354 8,113.5C 14.7311,63.8589 41.5644,30.3589 88.5,13C 96.8178,10.4391 105.151,8.6058 113.5,7.5 Z"/></g>
<g><path style="opacity:1" fill="#fff7f6" d="M 115.5,58.5 C 150.964,57.1303 167.797,74.1303 166,109.5C 162.43,121.309 156.763,131.975 149,141.5C 147.036,146.317 145.702,151.317 145,156.5C 133.617,165.505 121.45,166.672 108.5,160C 104.018,156.287 101.851,151.454 102,145.5C 96.0675,135.965 90.4009,126.299 85,116.5C 78.1191,87.9195 88.2858,68.5861 115.5,58.5 Z"/></g>
<g><path style="opacity:1" fill="#f98675" d="M 120.5,63.5 C 145.98,63.8149 159.647,76.6483 161.5,102C 161.099,107.34 159.932,112.507 158,117.5C 153.833,125.172 149.166,132.505 144,139.5C 142.243,144.037 140.91,148.704 140,153.5C 133.201,158.134 125.701,159.634 117.5,158C 110.144,156.981 106.977,152.814 108,145.5C 103.065,136.239 97.7316,127.239 92,118.5C 85.7651,102.635 87.7651,87.9683 98,74.5C 104.606,68.7791 112.106,65.1124 120.5,63.5 Z"/></g>
<g><path style="opacity:1" fill="#fff4f3" d="M 127.5,68.5 C 136.555,69.4459 144.055,73.4459 150,80.5C 151.254,84.1114 150.088,85.6114 146.5,85C 141.979,78.2554 135.646,74.2554 127.5,73C 126.272,71.5098 126.272,70.0098 127.5,68.5 Z"/></g>
<g><path style="opacity:1" fill="#fff8f7" d="M 107.5,90.5 C 114.389,89.967 120.056,92.3004 124.5,97.5C 133.78,88.0449 142.613,88.3782 151,98.5C 153.105,110.528 150.105,121.195 142,130.5C 136.738,135.217 131.571,140.051 126.5,145C 125.5,145.667 124.5,145.667 123.5,145C 112,136.843 103.5,126.343 98,113.5C 95.2016,103.123 98.3683,95.4564 107.5,90.5 Z"/></g>
<g><path style="opacity:1" fill="#f98574" d="M 109.5,95.5 C 111.199,95.3398 112.866,95.5065 114.5,96C 118.011,98.847 121.511,101.68 125,104.5C 127.707,101.89 130.54,99.3903 133.5,97C 144.614,95.4606 148.781,100.294 146,111.5C 141.598,121.775 135.098,130.608 126.5,138C 125.5,138.667 124.5,138.667 123.5,138C 114.768,130.945 107.935,122.445 103,112.5C 100.803,104.929 102.969,99.2628 109.5,95.5 Z"/></g>
<g><path style="opacity:1" fill="#fff4f3" d="M 104.5,163.5 C 108.542,163.523 112.208,164.689 115.5,167C 124.759,168.5 133.593,167.334 142,163.5C 143.662,163.388 144.829,164.054 145.5,165.5C 139.635,171.337 132.468,174.003 124,173.5C 116.943,173.655 110.61,171.655 105,167.5C 104.51,166.207 104.343,164.873 104.5,163.5 Z"/></g>
<g><path style="opacity:1" fill="#fff7f5" d="M 104.5,172.5 C 108.364,173.102 112.031,174.268 115.5,176C 118,176.167 120.5,176.333 123,176.5C 130.458,176.241 137.625,174.907 144.5,172.5C 144.203,176.695 141.869,179.195 137.5,180C 135.383,181.731 133.883,183.898 133,186.5C 126.223,192.319 120.223,191.652 115,184.5C 114.51,183.207 114.343,181.873 114.5,180.5C 111.072,180.453 108.072,179.287 105.5,177C 104.62,175.644 104.286,174.144 104.5,172.5 Z"/></g>
<g><path style="opacity:1" fill="#fa8f7f" d="M 120.5,183.5 C 123.024,182.2 125.691,182.2 128.5,183.5C 125.799,186.152 123.132,186.152 120.5,183.5 Z"/></g>
</svg>
